# xmcd CD database file
#
# Track frame offsets:
#	150
#	16355
#	39203
#	58165
#	70800
#	89398
#	106433
#	122519
#	148942
#	170653
#	191512
#	209954
#	222403
#	241277
#	259675
#	286199
#	298423
#
# Disc length: 4371 seconds
#
# Revision: 0
# Processed by: cddbd v1.5.1PL0 Copyright (c) Steve Scherf et al.
# Submitted via: CDex 1.51
#
DISCID=12111111
DTITLE=Varios - CocheMix vol.3
DYEAR=2000
DGENRE=
TTITLE0=BRYAN ADAMS - Summer Of '69
TTITLE1=JOE COCKER - Unchain My Heart
TTITLE2=BARRY WHITE - Just The Way You Are
TTITLE3=CAT STEVENS - Moonshadow
TTITLE4=LIONEL RICHIE - Hello
TTITLE5=JIMMY CLIFF - Wild World
TTITLE6=RICHARD MARX - Now And Forever
TTITLE7=BARRY RYAN - Eloise
TTITLE8=BLACK - Wonderful Life
TTITLE9=NINA SIMONE - My Baby Just Cares For Me
TTITLE10=BRYAN ADAMS - Heaven
TTITLE11=MICHAEL JACKSON - Ben
TTITLE12=PETER FRAMPTON - I'm In You
TTITLE13=SMOKEY ROBINSON - Being With You
TTITLE14=JOHN MILES - Music
TTITLE15=BOBBY HEBB - Sunny
TTITLE16=BRYAN ADAMS - Everything I Do I Do It For You
EXTD=YEAR: 2000
EXTT0=
EXTT1=
EXTT2=
EXTT3=
EXTT4=
EXTT5=
EXTT6=
EXTT7=
EXTT8=
EXTT9=
EXTT10=
EXTT11=
EXTT12=
EXTT13=
EXTT14=
EXTT15=
EXTT16=
PLAYORDER=
